<svg xmlns="http://www.w3.org/2000/svg" width="32" height="32" viewBox="0 0 32 32">
  <g id="icon_profile" transform="translate(264 -577)">
    <g id="Group_311" data-name="Group 311" transform="translate(-264 580)">
      <line id="Line_6" data-name="Line 6" x2="7" transform="translate(19 12)" fill="none" stroke="#fff" stroke-linecap="square" stroke-miterlimit="10" stroke-width="2"/>
      <line id="Line_7" data-name="Line 7" x2="7" transform="translate(19 17)" fill="none" stroke="#fff" stroke-linecap="square" stroke-miterlimit="10" stroke-width="2"/>
      <circle id="Ellipse_2" data-name="Ellipse 2" cx="2" cy="2" r="2" transform="translate(8 9)" fill="none" stroke="#fff" stroke-linecap="square" stroke-miterlimit="10" stroke-width="2"/>
      <path id="Path_742" data-name="Path 742" d="M19,34H9a4.012,4.012,0,0,1,4-4h2a4.012,4.012,0,0,1,4,4Z" transform="translate(-4 -14.5)" fill="none" stroke="#fff" stroke-linecap="square" stroke-miterlimit="10" stroke-width="2"/>
      <path id="Path_743" data-name="Path 743" d="M25,1a3,3,0,0,1-6,0H13A3,3,0,0,1,7,1H1V25H31V1Z" fill="none" stroke="#fff" stroke-linecap="square" stroke-miterlimit="10" stroke-width="2"/>
    </g>
    <rect id="Rectangle_191" data-name="Rectangle 191" width="32" height="32" transform="translate(-264 577)" fill="none"/>
  </g>
</svg>
